<svg id="Capa_1" enable-background="new 0 0 512.425 512.425" height="512" viewBox="0 0 512.425 512.425" width="512" xmlns="http://www.w3.org/2000/svg"><g><g><g><path d="m472.499 0c-8.284 0-15 6.716-15 15v30.841h-402.573v-30.841c0-8.284-6.716-15-15-15s-15 6.716-15 15v247.268c0 8.284 6.716 15 15 15s15-6.716 15-15v-186.427h66.286v156.549c0 8.284 6.716 15 15 15s15-6.716 15-15v-156.549h90v156.549c0 8.284 6.716 15 15 15s15-6.716 15-15v-156.549h90v156.549c0 8.284 6.716 15 15 15s15-6.716 15-15v-156.549h66.286v186.427c0 8.284 6.716 15 15 15s15-6.716 15-15v-247.268c.001-8.284-6.715-15-14.999-15z" fill="#a26037"/><path d="m472.499 0c-8.284 0-15 6.716-15 15v30.841h-201.327v201.547c.014 0 .027.002.04.002 8.284 0 15-6.716 15-15v-156.549h90v156.549c0 8.284 6.716 15 15 15s15-6.716 15-15v-156.549h66.286v186.427c0 8.284 6.716 15 15 15s15-6.716 15-15v-247.268c.001-8.284-6.715-15-14.999-15z" fill="#613921"/></g><g><path d="m448.64 320.209v177.216c0 8.284 6.716 15 15 15h33.572c8.284 0 15-6.716 15-15v-177.216z" fill="#613921"/><path d="m.213 320.209v177.216c0 8.284 6.716 15 15 15h33.572c8.284 0 15-6.716 15-15v-177.216z" fill="#a26037"/></g></g><g><g><path d="m489.901 311.41h-233.741v-82.448c0-20.875 16.923-37.798 37.798-37.798h158.144c20.875 0 37.798 16.923 37.798 37.798v82.448z" fill="#2b495d"/><path d="m256.16 311.41h-234.578v-82.448c0-20.875 16.923-37.798 37.798-37.798h158.982c20.875 0 37.798 16.923 37.798 37.798z" fill="#457899"/></g><g><g><g fill="#7fa6fb"><path d="m497.154 462.838c-8.284 0-15-6.716-15-15v-24.441c0-8.284 6.716-15 15-15s15 6.716 15 15v24.441c0 8.284-6.716 15-15 15z"/><path d="m436.919 462.838c-8.284 0-15-6.716-15-15v-24.441c0-8.284 6.716-15 15-15s15 6.716 15 15v24.441c0 8.284-6.716 15-15 15z"/><path d="m376.683 462.838c-8.284 0-15-6.716-15-15v-24.441c0-8.284 6.716-15 15-15s15 6.716 15 15v24.441c0 8.284-6.716 15-15 15z"/><path d="m316.448 462.838c-8.284 0-15-6.716-15-15v-24.441c0-8.284 6.716-15 15-15s15 6.716 15 15v24.441c0 8.284-6.716 15-15 15z"/></g><path d="m195.977 462.838c-8.284 0-15-6.716-15-15v-24.441c0-8.284 6.716-15 15-15s15 6.716 15 15v24.441c0 8.284-6.716 15-15 15z" fill="#9cd6f4"/><path d="m135.742 462.838c-8.284 0-15-6.716-15-15v-24.441c0-8.284 6.716-15 15-15s15 6.716 15 15v24.441c0 8.284-6.716 15-15 15z" fill="#9cd6f4"/><path d="m75.507 462.838c-8.284 0-15-6.716-15-15v-24.441c0-8.284 6.716-15 15-15s15 6.716 15 15v24.441c0 8.284-6.716 15-15 15z" fill="#9cd6f4"/><path d="m15.271 462.838c-8.284 0-15-6.716-15-15v-24.441c0-8.284 6.716-15 15-15s15 6.716 15 15v24.441c0 8.284-6.716 15-15 15z" fill="#9cd6f4"/><g><path d="m256.213 462.838c-8.284 0-15-6.716-15-15v-24.441c0-8.284 6.716-15 15-15s15 6.716 15 15v24.441c0 8.284-6.716 15-15 15z" fill="#9cd6f4"/><path d="m256.213 408.396c-.018 0-.034.003-.052.003v54.436c.018 0 .035.003.052.003 8.284 0 15-6.716 15-15v-24.441c0-8.285-6.716-15.001-15-15.001z" fill="#7fa6fb"/></g></g><g><g><path d="m512.131 430.358h-511.918v-105.91c.081-19.523 15.687-35.35 34.938-35.35h442.124c19.251 0 34.857 15.827 34.857 35.35v105.91z" fill="#fbf4f4"/><path d="m477.275 289.098h-221.115v141.261h255.971v-105.911c0-19.524-15.605-35.35-34.856-35.35z" fill="#e2e9ee"/></g><g><path d="m.213 347.268h511.919v30h-511.919z" fill="#9cd6f4"/><path d="m256.213 347.268h255.919v30h-255.919z" fill="#7fa6fb"/></g></g></g></g></g></svg>